<?xml version="1.0" encoding="iso-8859-1"?>
<!-- Uploaded to: SVG Repo, www.svgrepo.com, Generator: SVG Repo Mixer Tools -->
<svg fill="#1e40af"  height="800px" width="800px" version="1.1" id="Layer_1" xmlns="http://www.w3.org/2000/svg" xmlns:xlink="http://www.w3.org/1999/xlink" 
	 viewBox="0 0 512 512" xml:space="preserve">


	<g>
		<path d="M486.4,128h-51.2V25.6c0-14.14-11.46-25.6-25.6-25.6H76.8C34.449,0,0,34.449,0,76.8v358.4C0,477.619,34.381,512,76.8,512
			h409.6c14.14,0,25.6-11.46,25.6-25.6V153.6C512,139.46,500.54,128,486.4,128z M76.8,25.6h332.8V128H76.8
			c-28.279,0-51.2-22.921-51.2-51.2S48.521,25.6,76.8,25.6z M486.4,486.4H76.8c-28.228,0-51.2-22.972-51.2-51.2V133.623
			C39.219,145.903,57.062,153.6,76.8,153.6h409.6V486.4z"/>
	</g>

</svg>